<?xml version="1.0" encoding="UTF-8" standalone="no"?>
<svg
   version="1.1"
   x="0px"
   y="0px"
   viewBox="0 0 748 215"
   xml:space="preserve"
   id="svg7"
   sodipodi:docname="Logo_AM.svg"
   width="748"
   height="215"
   inkscape:version="1.1.2 (0a00cf5339, 2022-02-04)"
   xmlns:inkscape="http://www.inkscape.org/namespaces/inkscape"
   xmlns:sodipodi="http://sodipodi.sourceforge.net/DTD/sodipodi-0.dtd"
   xmlns="http://www.w3.org/2000/svg"
   xmlns:svg="http://www.w3.org/2000/svg"><defs
   id="defs11" /><sodipodi:namedview
   id="namedview9"
   pagecolor="#ffffff"
   bordercolor="#666666"
   borderopacity="1.0"
   inkscape:pageshadow="2"
   inkscape:pageopacity="0.0"
   inkscape:pagecheckerboard="0"
   showgrid="false"
   inkscape:zoom="1.438835"
   inkscape:cx="317.27058"
   inkscape:cy="226.5722"
   inkscape:window-width="1920"
   inkscape:window-height="992"
   inkscape:window-x="0"
   inkscape:window-y="29"
   inkscape:window-maximized="1"
   inkscape:current-layer="svg7" /> <style
   type="text/css"
   id="style2"> 	.st0{fill:#FFFFFF;} 	.st1{display:none;opacity:0.2;} 	.st2{display:inline;} 	.st3{fill:#38AA3B;} </style> <g
   id="Logo"
   transform="translate(-172.02865,-173.39993)">
<path
   class="st0"
   d="M 879.7,203.4 H 602.5 c -5,0 -12,-0.1 -19.4,7.3 -7,7 -4.9,14 -16.5,14 h -40.4 c -11.6,0 -9.5,-6.9 -16.5,-14 -7.4,-7.4 -14.4,-7.3 -19.4,-7.3 H 213 c -9.5,0 -13.7,8.4 -9.1,15.9 l 5,8.3 c 2.7,4.6 6.2,5.3 8.8,5.8 2.4,0.5 3.8,0.8 5.7,4 l 4.4,7.7 c 3.4,6.3 7.5,7.1 10.5,7.6 2.4,0.5 4.5,0.6 7.5,6 3.2,5.8 7.5,13.1 17.6,16.2 0,0 103.5,30.2 103.6,30.2 10.8,3.5 13.5,7.4 16.7,12 1.7,2.4 6.8,11 20.8,14.8 l 98.5,26.6 c 9.2,2.5 15.7,-1 20.2,-5 l 17.9,-16.9 c 4.6,-4.3 6.5,-4.3 11.1,0 l 17.9,16.9 c 4.5,4 10.9,7.5 20.2,5 l 98.5,-26.6 c 14,-3.8 19.1,-12.4 20.8,-14.8 3.2,-4.6 5.9,-8.5 16.7,-12 0,0 103.6,-30.2 103.6,-30.2 10.1,-3 14.4,-10.3 17.6,-16.2 2.9,-5.4 5.1,-5.6 7.5,-6 3,-0.6 7.1,-1.3 10.5,-7.6 l 4.4,-7.7 c 1.8,-3.2 3.3,-3.5 5.7,-4 2.6,-0.5 6.1,-1.2 8.8,-5.8 l 5,-8.3 c 4,-7.5 -0.2,-15.9 -9.7,-15.9 m -666.5,17.2 -3,-5 c -0.9,-1.5 -1.5,-4.9 2.8,-4.9 h 277.3 c 5.6,0 11.9,-0.1 18,10.5 0.8,1.4 1.7,3 2.9,4.5 h -281 c -11.4,0.1 -13.6,0.1 -17,-5.1 M 393,231.4 h 306.8 v 48.1 H 393 Z m -157.8,11.8 c -2.6,-2.6 -4.3,-8 -6.6,-11.2 0,0 159,-0.7 159,-0.7 v 7 l -134.5,7.8 c -10.6,0.8 -14.9,0.2 -17.9,-2.9 m 20.8,18.3 c -1.5,-1.9 -2.7,-4.1 -3.9,-6.2 -0.6,-1.1 -1.2,-2 -1.8,-2.8 1.9,-0.1 2.3,-0.2 5.9,-0.4 L 387.4,244 v 7.5 l -103.7,11.1 c -13.9,1.5 -23.4,3.6 -27.7,-1.1 m 35.5,14.1 c -7.6,-2.2 -14.2,-4.1 -18.9,-5.5 12.6,-1.5 114.8,-12.9 114.8,-12.9 v 8.3 L 321,276.2 c -7.7,1.3 -16.9,2.8 -29.5,-0.6 m 46.1,13.5 c -6.7,-1.9 -13.9,-4 -21,-6.1 1.9,-0.3 3.2,-0.5 5.4,-0.8 6.7,-1.1 65.5,-10.9 65.5,-10.9 v 9 c 0,0 -24.6,7 -24.7,7 -0.2,-0.1 -15.4,4.5 -25.2,1.8 m 31.3,9.1 v 0 c -1,-0.3 -5.5,-1.6 -12.1,-3.5 4.3,-0.8 7,-1.7 7.6,-1.9 0.4,-0.1 26.8,-7.8 26.8,-7.8 h 30 l -27.7,12.9 c -8.9,3.4 -16.7,2.4 -24.6,0.3 m 27.6,22.3 c -3.3,-2.3 -5.1,-4.8 -7,-7.5 -1.6,-2.3 -3.2,-4.6 -5.8,-7 0.6,0 3.4,-0.2 6.5,-1 3.3,-0.8 10.5,-3.9 10.5,-3.9 L 434,284.9 h 22.2 l -43.7,30.9 c -6.6,4.5 -11.9,6.1 -16,4.7 m 33,10.7 -21.4,-5.8 c 2.9,-1.2 5.7,-2.8 8,-4.3 2.2,-1.5 -0.3,0.4 50.3,-36.2 H 485 l -34.2,35 c -6.1,6.2 -12.7,13 -21.3,11.3 m 33.7,9.2 -20.1,-5.4 c 5.5,-3.2 10.4,-8.6 12.3,-10.5 l 38,-39.4 H 510 l -30.3,47.3 c -4.9,7.4 -10.6,9 -16.5,8 m 35.2,9.5 -21.4,-5.8 c 1,-0.7 4.8,-3 8.4,-8.8 0,0 31.7,-50.4 31.7,-50.4 h 14.4 c 0,0 -18.6,54.6 -19.9,57.3 -3.7,8.1 -8,8.7 -13.2,7.7 m 76.3,-1.7 -17.7,-16.8 c -7.4,-7 -13.7,-7 -21.2,0 l -17.7,16.8 c -1.4,1.2 -2.7,2.1 -4.1,2.8 3.3,-4.1 5.2,-9.8 6.4,-13.5 L 538,285 h 16.8 l 17.6,52.5 c 1.3,3.9 3.2,9.5 6.4,13.5 -1.4,-0.7 -2.7,-1.6 -4.1,-2.8 m 19.6,1.7 c -5.2,1 -9.5,0.4 -13.2,-7.6 -1.3,-2.8 -19.9,-57.3 -19.9,-57.3 h 14.4 c 0,0 31.7,50.4 31.7,50.4 3.6,5.7 7.3,8.1 8.4,8.8 z m 35.3,-9.5 c -5.9,1.1 -11.6,-0.6 -16.6,-8.1 L 582.7,285 h 16.7 l 38,39.4 c 1.9,2 6.7,7.3 12.3,10.5 z m 33.7,-9.2 C 654.6,332.9 648,326 642,319.9 l -34.2,-35 h 18.6 c 0,0 48.1,34.7 50.3,36.2 2.3,1.5 5,3.1 8,4.3 z m 39.9,-18.1 c -1.9,2.7 -3.6,5.2 -7,7.5 -4,1.3 -9.4,-0.3 -16.1,-4.6 -1.9,-1.2 -43.7,-30.9 -43.7,-30.9 h 22.2 c 0,0 25.7,12.7 33.3,16.2 4.3,2 9.8,4.5 17,4.9 -2.5,2.2 -4.1,4.6 -5.7,6.9 m 20.7,-14.9 v 0 c -7.9,2.1 -15.7,3.1 -24.6,-0.3 -3.2,-1.2 -27.7,-12.9 -27.7,-12.9 h 30 c 0,0 26.4,7.7 26.8,7.8 0.7,0.2 3.3,1 7.6,1.9 -6.6,1.9 -11.1,3.2 -12.1,3.5 m 31.3,-9.1 c -9.8,2.7 -25.2,-1.9 -25.2,-1.9 -0.1,0 -24.7,-7 -24.7,-7 v -9 c 0,0 58.9,9.8 65.5,10.9 2.2,0.4 3.4,0.6 5.4,0.8 -7.2,2.1 -14.3,4.2 -21,6.2 m 46.1,-13.5 c -12.5,3.3 -21.8,1.8 -29.5,0.6 -6.6,-1.1 -66.5,-10.7 -66.5,-10.7 v -8.3 l 114.8,12.9 c -4.6,1.4 -11.3,3.3 -18.8,5.5 m 39.4,-20.2 c -1.1,2.1 -2.4,4.2 -3.9,6.2 -4.3,4.7 -13.8,2.6 -27.8,1.1 L 705.3,251.6 V 244 c 0,0 129.6,8 131.2,8.1 3.6,0.2 4,0.3 5.9,0.4 -0.6,0.9 -1.2,1.8 -1.7,2.9 m 14.9,-11.3 c -5.1,3.2 -10.8,2.3 -27.9,1.3 l -122.4,-7.1 v -7 l 158.9,0.7 c -3.2,4.6 -4.1,9.3 -8.6,12.1 m 27,-28.5 -3,5 c -3.4,5.2 -5.6,5.2 -17,5.2 h -281 c 1.2,-1.5 2.1,-3.1 2.9,-4.5 6.1,-10.6 12.4,-10.5 18,-10.5 h 277.3 c 4.3,-0.1 3.7,3.3 2.8,4.8 m -313.1,54.2 c -0.7,-8.7 -1.2,-13.8 -1.6,-17.3 -4.7,8.5 -6.7,12.5 -8.6,16.9 h -1.9 c -4.7,-9.5 -5.2,-10.6 -6.5,-13.1 -0.4,-0.8 -1,-1.8 -1.9,-3.6 -0.4,3.4 -1.1,10.2 -1.6,17.1 h -4.8 c 1.4,-10 3.6,-27 3.8,-28.4 h 2.9 c 0,0 6.9,13.7 9.9,18.9 3.5,-6.4 5.7,-10.9 10.2,-18.9 h 2.6 c 0.5,4.1 2,17.1 3.4,28.4 z m 87.6,-28.4 h -5.6 v 28.4 h 5.6 z m -16.9,28.4 v -24.2 c 4.2,0.1 6.4,0.3 8.5,0.6 v -4.8 h -22.9 v 4.8 c 2.4,-0.3 4.8,-0.5 8.8,-0.6 v 24.2 z m -177.4,0 v -24.2 c 4.2,0.1 6.4,0.3 8.5,0.6 v -4.8 h -22.9 v 4.8 c 2.4,-0.3 4.8,-0.5 8.8,-0.6 v 24.2 z m 65.7,0 v -28.4 h -4.4 v 18.3 L 507.2,241.4 H 504 v 28.4 h 4.5 v -19.2 l 17.2,19.2 z m -98.9,-8 v 6.3 c 1.8,1.1 4,2.4 7.7,2.4 6.1,0 11.6,-3.4 11.6,-9.3 0,-1.9 -0.6,-5.3 -4.9,-7.2 -3.6,-1.6 -5.9,-2 -7.5,-3.3 -2.8,-2.4 -0.5,-6.2 3.3,-6.2 1.2,0 4,0.3 4.8,3.1 h 2.1 v -5.2 c -2,-0.9 -4.5,-1.8 -7.1,-1.8 -2.3,0 -4.5,0.7 -6.3,2 -4.3,3.2 -5.5,9.6 0.6,13.3 3.9,2.3 9.1,2.1 9.3,6.3 0.1,3.1 -2.9,4.3 -5.1,4.3 -4.5,0 -5.9,-3.9 -6.2,-4.7 z m -0.1,8 -12.5,-29 h -2.4 l -12.9,29 h 5.3 c 0.7,-2.3 1.2,-4.1 2.8,-8 H 420 c 1.3,3.1 2.2,5.9 3,8 z m -18.1,-11.7 c 0.6,-1.4 0.7,-1.7 3.5,-8.3 2.7,6.3 2.9,6.7 3.5,8.3 z m 88.9,-2.5 c 0,-10 -7.5,-15.2 -14.8,-15.2 -7.3,0 -14.8,5.1 -14.8,15.2 0,10 7.5,15.2 14.8,15.2 7.4,0 14.8,-5.1 14.8,-15.2 M 485.6,267 v 0 c -4.5,0 -8.5,-4.2 -8.5,-11.4 0,-7.5 4.3,-11.4 8.5,-11.4 v 0 c 4.2,0 8.5,3.9 8.5,11.4 0,7.5 -4.3,11.4 -8.5,11.4 z m 120,2.8 h 5.6 v -11.7 h 1.4 l 9.5,11.7 h 7 l -10.6,-12.5 c 1.5,-0.6 2.8,-1.4 3.8,-2.4 2.9,-2.9 3.3,-7.9 0,-11.2 -1.7,-1.7 -3.6,-2.6 -8.4,-2.6 0,0 -6.5,0.1 -8.2,0.2 z m 5.6,-25 c 0.7,-0.1 1.3,-0.1 1.9,-0.1 5.8,0 6,4.3 6,4.9 0,3 -2.6,5.7 -7.9,4.8 z m -7.1,25 -12.5,-29 h -2.4 l -12.9,29 h 5.3 c 0.7,-2.3 1.2,-4.1 2.8,-8 h 10.1 c 1.3,3.1 2.2,5.9 3,8 z m -18,-11.7 c 0.6,-1.4 0.7,-1.7 3.5,-8.3 2.7,6.3 2.9,6.7 3.5,8.3 z m 101.3,11.7 V 241.4 H 683 v 18.3 l -17,-18.3 h -3.2 v 28.4 h 4.5 v -19.2 l 17.2,19.2 z"
   id="path4" />
</g> </svg>
